<svg width="260" height="295" viewBox="0 0 260 295" fill="none" xmlns="http://www.w3.org/2000/svg">
<path d="M23.6345 265.07L0 0H259.696L236.029 265.028L129.69 294.511L23.6345 265.07Z" fill="#E44F26"/>
<path d="M129.85 271.981L215.784 248.157L236 21.6779H129.85V271.981Z" fill="#F1662A"/>
<path d="M129.85 119.982H86.8303L83.8641 86.6915H129.85V54.1796H129.734H48.3335L49.1119 62.9097L57.0952 152.494H129.85V119.982Z" fill="#EBEBEB"/>
<path d="M129.847 204.412L129.7 204.454L93.4961 194.682L91.1821 168.755H73.585H58.5439L63.0984 219.789L129.7 238.28L129.847 238.238V204.412Z" fill="#EBEBEB"/>
<path d="M129.732 119.982V152.493H169.764L165.999 194.661L129.732 204.443V238.27L196.386 219.789L196.87 214.299L204.506 128.712L205.306 119.982H196.544H129.732Z" fill="white"/>
<path d="M129.732 54.1796V74.3746V86.6178V86.6915H208.156H208.261L208.913 79.3918L210.396 62.9097L211.175 54.1796H129.732Z" fill="white"/>
</svg>
