<svg width="260" height="260" viewBox="0 0 260 260" fill="none" xmlns="http://www.w3.org/2000/svg">
<path d="M0 0H259.696V259.696H0V0Z" fill="#F5DE19"/>
<path d="M174.451 202.887C176.664 207.382 180.102 211.159 184.368 213.785C188.635 216.411 193.557 217.777 198.566 217.727C208.676 217.727 215.14 212.672 215.14 205.669C215.14 197.322 208.499 194.336 197.369 189.466L191.267 186.851C173.644 179.347 161.958 169.952 161.958 150.085C161.958 131.786 175.87 117.846 197.694 117.846C204.759 117.336 211.817 118.917 217.989 122.392C224.161 125.867 229.173 131.083 232.401 137.388L213.322 149.585C212.08 146.458 209.916 143.783 207.118 141.915C204.32 140.047 201.021 139.073 197.657 139.123C196.189 138.976 194.707 139.136 193.305 139.594C191.903 140.051 190.611 140.796 189.513 141.78C188.414 142.764 187.533 143.966 186.924 145.31C186.316 146.654 185.995 148.11 185.98 149.585C185.98 156.902 190.515 159.87 200.987 164.424L207.09 167.04C227.828 175.934 239.551 184.996 239.551 205.373C239.551 227.345 222.291 239.384 199.113 239.384C190.082 239.959 181.078 237.909 173.186 233.48C165.295 229.051 158.854 222.433 154.64 214.425L174.451 202.887ZM88.2417 205.002C92.0722 211.8 95.5596 217.551 103.944 217.551C111.957 217.551 117.022 214.416 117.022 202.219V119.237H141.424V202.544C141.424 227.809 126.584 239.309 104.983 239.309C97.3473 239.727 89.7642 237.824 83.2304 233.851C76.6966 229.878 71.5178 224.021 68.375 217.05L88.2417 205.002Z" fill="black"/>
</svg>
