<svg width="264" height="254" viewBox="0 0 264 254" fill="none" xmlns="http://www.w3.org/2000/svg">
<path d="M132 254C127.984 254.001 124.038 253.1 120.56 251.387L84.1547 232.999C78.7216 230.405 81.369 229.489 83.1659 228.953C88.9443 227.43 94.477 225.297 99.6353 222.603C100.067 222.433 100.543 222.359 101.017 222.389C101.492 222.42 101.949 222.553 102.347 222.776L130.32 236.955C130.841 237.19 131.421 237.313 132.011 237.313C132.6 237.313 133.18 237.19 133.701 236.955L242.789 183.233C243.299 182.972 243.721 182.602 244.014 182.16C244.307 181.718 244.46 181.219 244.458 180.711V73.2493C244.458 72.7335 244.303 72.2264 244.007 71.7767C243.711 71.327 243.284 70.95 242.767 70.682L133.68 17.0056C133.166 16.7585 132.585 16.6286 131.995 16.6286C131.404 16.6286 130.824 16.7585 130.309 17.0056L21.2859 70.7002C20.7659 70.9626 20.3341 71.3351 20.0323 71.7817C19.7306 72.2283 19.5691 72.7338 19.5635 73.2493V180.666C19.565 181.172 19.7243 181.669 20.0251 182.106C20.3259 182.543 20.7574 182.903 21.2753 183.151L51.1946 197.883C67.4088 204.796 77.3394 196.65 77.3394 188.467V82.4115C77.3394 82.0542 77.4219 81.7003 77.5822 81.3701C77.7425 81.0399 77.9774 80.7399 78.2736 80.4872C78.5698 80.2345 78.9215 80.034 79.3085 79.8972C79.6954 79.7605 80.1102 79.6901 80.5291 79.6901H94.3511C95.197 79.6901 96.0083 79.9768 96.6065 80.4872C97.2047 80.9975 97.5408 81.6898 97.5408 82.4115V188.476C97.5408 206.937 85.7602 217.505 65.2398 217.505C56.3872 217.637 47.6733 215.617 40.1157 211.681L11.4404 197.647C7.95928 195.918 5.0708 193.439 3.06332 190.46C1.05585 187.48 -0.000385384 184.103 7.56149e-05 180.666V73.2493C-0.0102716 69.8069 1.04149 66.4228 3.04967 63.4371C5.05785 60.4514 7.9517 57.9693 11.4404 56.2401L120.538 2.50022C124.053 0.85979 127.994 0 132 0C136.006 0 139.947 0.85979 143.462 2.50022L252.549 56.2401C256.03 57.9664 258.919 60.4413 260.928 63.418C262.938 66.3946 263.997 69.7689 264 73.2039V180.666C263.994 184.103 262.934 187.478 260.925 190.458C258.916 193.437 256.029 195.916 252.549 197.647L143.462 251.387C139.977 253.103 136.023 254.004 132 254Z" fill="#83CD29"/>
<path d="M111.312 144.715C111.312 143.993 111.649 143.301 112.247 142.791C112.845 142.28 113.656 141.993 114.502 141.993H128.611C129.365 141.996 130.094 142.225 130.668 142.642C131.242 143.059 131.625 143.636 131.748 144.27C133.874 156.526 140.254 162.704 169.099 162.704C192.075 162.704 201.868 158.268 201.868 147.863C201.868 141.866 199.093 137.412 163.379 134.428C133.523 131.906 115.066 126.263 115.066 105.907C115.066 87.1287 133.619 75.9253 164.719 75.9253C199.667 75.9253 216.966 86.2759 219.156 108.483C219.189 108.854 219.133 109.227 218.991 109.578C218.85 109.93 218.625 110.253 218.331 110.527C218.037 110.802 217.68 111.022 217.283 111.175C216.885 111.327 216.455 111.408 216.019 111.413H201.815C201.102 111.405 200.413 111.193 199.858 110.811C199.303 110.43 198.914 109.901 198.752 109.309C195.361 96.4179 187.057 92.2995 164.729 92.2995C139.637 92.2995 136.724 99.7563 136.724 105.344C136.724 112.112 140.169 114.089 174.043 117.908C207.567 121.691 223.494 127.044 223.494 147.146C223.494 167.43 203.675 179.042 169.11 179.042C121.317 179.096 111.312 160.4 111.312 144.715Z" fill="#83CD29"/>
</svg>
