<svg width="260" height="295" viewBox="0 0 260 295" fill="none" xmlns="http://www.w3.org/2000/svg">
<path d="M23.6259 265.092L0 0H259.696L236.038 265.05L129.69 294.535L23.6259 265.092Z" fill="#1572B6"/>
<path d="M129.85 272.003L215.791 248.177L236.009 21.6799H129.85V272.003Z" fill="#33A9DC"/>
<path d="M129.85 117.719H172.873L175.84 84.4263H129.85V51.9117H129.966H211.373L210.595 60.6321L202.611 150.234H129.85V117.719Z" fill="white"/>
<path d="M130.047 202.156L129.9 202.198L93.6932 192.415L91.3791 166.486H73.7806H58.7383L63.2931 217.535L129.889 236.027L130.047 235.985V202.156Z" fill="#EBEBEB"/>
<path d="M170.105 148.856L166.192 192.394L129.933 202.177V236.007L196.582 217.535L197.076 212.044L202.725 148.856H170.105Z" fill="white"/>
<path d="M129.962 51.9117V72.1084V84.3421V84.4263H51.5312H51.426L50.7738 77.1155L49.2906 60.6321L48.5122 51.9117H129.962Z" fill="#EBEBEB"/>
<path d="M129.847 117.719V137.916V150.15V150.234H94.1979H94.0927L93.4405 142.923L91.9679 126.44L91.1895 117.719H129.847Z" fill="#EBEBEB"/>
</svg>
