<svg width="241" height="232" viewBox="0 0 241 232" fill="none" xmlns="http://www.w3.org/2000/svg">
<path d="M120.23 138.496C132.087 138.496 141.699 128.115 141.699 115.309C141.699 102.503 132.087 92.1221 120.23 92.1221C108.373 92.1221 98.7603 102.503 98.7603 115.309C98.7603 128.115 108.373 138.496 120.23 138.496Z" fill="#00D8FF"/>
<path d="M120.23 168.472C94.4245 169.147 68.6838 165.39 43.9698 157.343C32.5533 153.434 21.9053 147.277 12.564 139.183C8.99946 136.417 6.031 132.852 3.86232 128.731C1.69363 124.61 0.376059 120.032 0 115.309C0 99.9777 15.5955 84.9525 41.7198 75.1212C67.0945 66.4098 93.6069 62.1878 120.23 62.6187C146.498 62.2223 172.655 66.368 197.709 74.8986C208.704 78.6842 218.991 84.5437 228.093 92.2054C231.597 94.8417 234.521 98.2779 236.658 102.27C238.795 106.263 240.093 110.714 240.46 115.309C240.46 131.243 223.026 147.391 194.944 157.426C170.709 165.211 145.511 168.937 120.23 168.472ZM120.23 73.7114C94.7593 73.3437 69.3969 77.3574 45.0948 85.6017C21.0488 94.6633 10.2711 107.054 10.2711 115.281C10.2711 123.888 21.8561 137.42 47.2933 146.816C70.9362 154.475 95.5536 158.041 120.23 157.38C144.417 157.847 168.527 154.312 191.724 146.899C218.131 137.448 230.154 123.898 230.154 115.309C229.721 112.362 228.726 109.544 227.234 107.032C225.741 104.521 223.782 102.372 221.481 100.72C213.337 93.9226 204.148 88.7296 194.334 85.3791C170.366 77.2521 145.349 73.3132 120.23 73.7114Z" fill="#00D8FF"/>
<path d="M71.4516 230.957C67.4454 231.056 63.4864 230.007 59.9783 227.915C47.6805 220.254 43.4209 198.161 48.5822 168.806C54.2729 140.714 64.1331 113.8 77.7809 89.1077C90.583 64.3356 106.973 41.9351 126.328 22.7555C134.857 14.3591 144.696 7.66113 155.389 2.9723C159.257 1.01475 163.476 0 167.747 0C172.018 0 176.237 1.01475 180.105 2.9723C192.892 10.9301 197.126 35.3044 191.158 66.5884C185.291 93.1568 175.687 118.597 162.68 142.021C150.329 166.5 134.455 188.706 115.653 207.807C106.815 216.533 96.5568 223.416 85.3983 228.11C80.9311 229.9 76.2158 230.863 71.4516 230.957ZM86.6779 94.617C73.6595 118.262 64.2092 143.994 58.6815 170.847C53.9324 197.883 58.4926 214.142 65.1224 218.278C71.9927 222.573 88.6702 218.501 108.92 199.395C126.869 181.095 142.02 159.84 153.809 136.419C166.269 114.025 175.482 89.7026 181.127 64.2975C186.743 34.8499 181.891 16.8196 175.004 12.5347C172.422 11.4664 169.664 10.9883 166.903 11.1303C164.141 11.2724 161.437 12.0317 158.962 13.3601C149.444 17.6019 140.693 23.6239 133.112 31.1493C114.62 49.5208 98.9644 70.9656 86.738 94.6726L86.6779 94.617Z" fill="#00D8FF"/>
<path d="M168.983 231.078C157.347 231.078 142.567 223.472 127.178 209.18C107.483 189.826 90.8164 167.159 77.8231 142.058C64.3465 117.705 54.5644 91.1811 48.8478 63.4907C46.3685 51.3081 45.9091 38.7472 47.4909 26.3913C47.8566 21.8078 49.1489 17.3666 51.2767 13.3812C53.4045 9.39567 56.316 5.96286 59.8058 3.32479C72.576 -4.66085 94.2431 3.54739 116.357 24.7497C134.74 43.5051 150.351 65.1945 162.645 89.0614C176.114 112.845 185.998 138.789 191.93 165.922C194.516 178.552 194.915 191.589 193.106 204.376C192.676 209.091 191.307 213.65 189.092 217.74C186.878 221.831 183.87 225.355 180.276 228.073C176.825 230.138 172.928 231.176 168.983 231.078ZM86.7116 136.474C99.1762 160.463 115.097 182.156 133.876 200.74C153.19 218.687 168.511 222.545 175.098 218.362C181.968 214.049 187.035 196.446 181.813 167.962C176.093 142.057 166.612 117.293 153.723 94.5892C141.99 71.7464 127.089 50.9776 109.538 33.0043C88.7211 13.0448 71.8374 8.58363 64.9586 12.8872C62.8145 14.7688 61.0551 17.1102 59.7913 19.7634C58.5275 22.4166 57.7868 25.324 57.6159 28.3019C56.2505 39.3212 56.6953 50.5143 58.9299 61.3667C64.4287 87.8477 73.8104 113.21 86.7202 136.493L86.7116 136.474Z" fill="#00D8FF"/>
</svg>
