<svg width="214" height="201" viewBox="0 0 214 201" fill="none" xmlns="http://www.w3.org/2000/svg">
<path d="M108.559 120.022C104.183 121.61 99.3887 123.68 89.7909 127.84C86.1519 129.457 82.3491 131.074 78.8102 132.597C78.5646 132.403 78.3099 132.159 78.0642 131.957C59.0777 115.933 23.9614 104.616 25.4534 83.0952C26.0083 75.2557 29.4199 54.6761 92.8931 29.6845C145.131 9.3492 186.697 14.9827 193.875 27.4785C204.192 45.2917 171.596 78.4389 117.647 83.2461C111.677 84.2027 105.51 84.0871 99.6034 82.9081C93.6968 81.729 88.2011 79.5165 83.5227 76.4341C80.6661 73.9838 80.2385 73.8401 79.1832 74.3287C77.4456 75.0473 78.5646 77.2677 79.1832 78.5395C81.2411 81.4824 84.025 84.0694 87.3705 86.1478C90.7161 88.2262 94.5552 89.7538 98.6609 90.6401C119.891 94.2645 142.026 92.5328 161.943 85.6892C194.64 75.694 220.167 47.9072 212.689 24.6115C205.184 0.992328 155.548 -6.79688 108.586 6.38154C79.1766 14.2095 52.0047 26.5322 28.6193 42.6474C2.74605 61.7611 -1.34782 78.3742 0.32612 85.3299C6.34866 110.027 49.4526 126.101 66.7378 138.008C65.8281 138.403 65.0639 138.726 64.3816 139.035C55.7572 142.42 22.8788 155.993 14.682 170.35C5.37523 186.618 16.174 198.281 23.3064 199.847C34.055 201.881 45.3393 201.212 55.5835 197.935C65.8278 194.658 74.5205 188.935 80.4478 181.567C85.4812 175.457 88.572 168.477 89.4574 161.221C90.3428 153.965 88.9966 146.647 85.5333 139.89C87.5766 138.603 89.7559 137.456 92.0471 136.463C96.4503 134.408 100.644 132.381 104.365 130.815C117.105 126.102 131.008 123.675 145.076 123.708C174.607 126.453 180.438 141.004 179.319 147.133C178.796 149.308 177.689 151.369 176.072 153.177C174.456 154.986 172.368 156.5 169.949 157.617C167.902 158.645 167.22 158.99 167.402 159.723C167.647 160.8 168.639 160.75 170.376 160.556C174.813 159.449 178.722 157.307 181.589 154.412C184.457 151.518 186.149 148.006 186.443 144.338C187.352 129.967 170.004 114.202 139.29 114.345C130.094 114.358 120.989 115.791 112.489 118.563C111.125 119.009 109.799 119.488 108.514 120.001L108.559 120.022ZM64.6636 176.35C54.8565 184.779 41.2103 187.962 35.3151 185.268C28.9468 182.393 31.4668 169.926 43.5028 161.009C50.6313 155.936 58.336 151.392 66.5195 147.435C67.9478 146.717 70.0584 145.768 72.5966 144.561C73.0333 144.367 73.2789 144.266 73.2789 144.266L74.7709 143.548C76.9175 149.232 77.1129 155.265 75.3369 161.029C73.5609 166.793 69.8774 172.08 64.6636 176.35Z" fill="#CD6799"/>
</svg>
